<svg id="visual" viewBox="0 0 900 600" width="900" height="600" xmlns="http://www.w3.org/2000/svg" xmlns:xlink="http://www.w3.org/1999/xlink" version="1.1"><rect width="900" height="600" fill="#6600ff"></rect><g><g transform="translate(755 86)"><path d="M34.6 -11.9C39.7 4.4 35.1 23.2 22.9 32.2C10.7 41.2 -9.1 40.4 -22.7 30.7C-36.3 20.9 -43.7 2.2 -38.9 -13.7C-34.1 -29.6 -17 -42.7 -1.1 -42.3C14.7 -41.9 29.5 -28.1 34.6 -11.9Z" fill="#Fff"></path></g><g transform="translate(496 221)"><path d="M17.7 -5.5C20.2 1.9 17.5 11.1 11.5 15.4C5.4 19.7 -4 19.1 -10.7 14.3C-17.4 9.5 -21.4 0.6 -19.2 -6.4C-16.9 -13.3 -8.5 -18.4 -0.4 -18.3C7.6 -18.1 15.2 -12.8 17.7 -5.5Z" fill="#Fff"></path></g><g transform="translate(99 64)"><path d="M22.8 -7.3C26.1 2.6 22.8 14.7 14.5 21C6.1 27.3 -7.2 27.8 -16.1 21.5C-25.1 15.2 -29.6 2 -26.2 -8.2C-22.8 -18.3 -11.4 -25.6 -0.8 -25.3C9.8 -25 19.6 -17.3 22.8 -7.3Z" fill="#Fff"></path></g><g transform="translate(724 412)"><path d="M33.4 -10.7C38.2 3.9 33.5 21.7 22.5 29.2C11.5 36.8 -5.6 34 -18 25C-30.5 15.9 -38.2 0.5 -34.4 -12.7C-30.6 -26 -15.3 -37 -0.5 -36.9C14.3 -36.7 28.7 -25.3 33.4 -10.7Z" fill="#Fff"></path></g><g transform="translate(97 364)"><path d="M22.3 -6.8C25.3 1.8 21.5 13 13.3 19.2C5.1 25.4 -7.5 26.5 -16 20.7C-24.4 14.8 -28.7 2.1 -25.4 -7.1C-22 -16.3 -11 -21.9 -0.7 -21.7C9.7 -21.5 19.4 -15.5 22.3 -6.8Z" fill="#Fff"></path></g><g transform="translate(362 318)"><path d="M26.3 -7.9C30.4 4 27.4 18.8 18.3 25.4C9.2 32.1 -5.9 30.6 -16.1 23C-26.3 15.4 -31.6 1.7 -28.1 -9.4C-24.5 -20.5 -12.3 -29 -0.6 -28.8C11.1 -28.6 22.3 -19.7 26.3 -7.9Z" fill="#Fff"></path></g><g transform="translate(512 553)"><path d="M27.1 -8.5C30.5 1.6 25.3 14.7 16 21.3C6.6 28 -7 28.1 -15.5 21.8C-24.1 15.5 -27.7 2.7 -24.3 -7.4C-20.8 -17.5 -10.4 -24.9 0.7 -25.1C11.9 -25.4 23.7 -18.5 27.1 -8.5Z" fill="#Fff"></path></g><g transform="translate(499 52)"><path d="M22.3 -7C25.1 1.4 20.9 12.2 13.1 17.8C5.4 23.4 -6.1 23.8 -13.2 18.5C-20.4 13.3 -23.2 2.4 -20.3 -6.2C-17.4 -14.8 -8.7 -21.1 0.5 -21.3C9.7 -21.4 19.5 -15.5 22.3 -7Z" fill="#Fff"></path></g><g transform="translate(337 4)"><path d="M20.4 -6.7C22.9 0.8 18.7 10.4 11.5 15.6C4.4 20.7 -5.8 21.3 -12 16.8C-18.3 12.2 -20.6 2.4 -17.9 -5.5C-15.2 -13.3 -7.6 -19.1 0.7 -19.4C9 -19.6 18 -14.2 20.4 -6.7Z" fill="#Fff"></path></g><g transform="translate(250 199)"><path d="M36.3 -11.8C40.8 2.1 33.9 19.7 21.3 28.6C8.8 37.6 -9.5 37.9 -20.8 29.5C-32.1 21.1 -36.3 4 -31.6 -10.1C-27 -24.1 -13.5 -35.1 1.2 -35.4C15.9 -35.8 31.8 -25.7 36.3 -11.8Z" fill="#Fff"></path></g><g transform="translate(634 540)"><path d="M23.8 -7C27 2.2 23.2 14.4 15.3 19.8C7.4 25.3 -4.5 23.9 -11.8 18.2C-19.1 12.4 -21.8 2.2 -19 -6.3C-16.3 -14.8 -8.2 -21.6 1.1 -22C10.3 -22.3 20.6 -16.2 23.8 -7Z" fill="#Fff"></path></g><g transform="translate(330 490)"><path d="M24.4 -6.5C28.1 3.5 25.3 17.2 16.7 23.5C8.2 29.8 -6 28.8 -15.6 21.7C-25.2 14.7 -30.2 1.6 -26.8 -7.9C-23.5 -17.5 -11.7 -23.6 -0.7 -23.3C10.3 -23.1 20.7 -16.6 24.4 -6.5Z" fill="#Fff"></path></g><g transform="translate(807 550)"><path d="M24 -8C27 1.4 22.5 13 14 19.1C5.6 25.2 -6.8 25.8 -13.9 20.3C-21.1 14.9 -23 3.4 -19.8 -6.3C-16.6 -15.9 -8.3 -23.7 1.1 -24C10.5 -24.4 21.1 -17.3 24 -8Z" fill="#Fff"></path></g></g></svg>